HIERARCHY
ROOT Hips
{
	OFFSET	0.00	0.00	0.00
	CHANNELS 6 Xposition Yposition Zposition Zrotation Xrotation Yrotation
	JOINT LeftUpLeg
	{
		OFFSET	 0.126116	-0.014019	-0.065224
		CHANNELS 3 Zrotation Xrotation Yrotation
		JOINT LeftLeg
		{
			OFFSET	 0.000000	 0.000000	 0.569914
			CHANNELS 3 Zrotation Xrotation Yrotation
			JOINT LeftFoot
			{
				OFFSET	 0.000000	 0.000000	 0.544423
				CHANNELS 3 Zrotation Xrotation Yrotation
				JOINT LeftToeBase
				{
					OFFSET	 0.000000	 0.000000	 0.207117
					CHANNELS 3 Zrotation Xrotation Yrotation
					End Site
					{
						OFFSET	 0.000000	 0.000000	 0.207117
					}
				}
			}
		}
	}
	JOINT RightUpLeg
	{
		OFFSET	-0.124023	-0.008373	-0.065224
		CHANNELS 3 Zrotation Xrotation Yrotation
		JOINT RightLeg
		{
			OFFSET	 0.000000	 0.000000	 0.570047
			CHANNELS 3 Zrotation Xrotation Yrotation
			JOINT RightFoot
			{
				OFFSET	 0.000000	 0.000000	 0.544354
				CHANNELS 3 Zrotation Xrotation Yrotation
				JOINT RightToeBase
				{
					OFFSET	 0.000000	 0.000000	 0.207540
					CHANNELS 3 Zrotation Xrotation Yrotation
					End Site
					{
						OFFSET	 0.000000	 0.000000	 0.207540
					}
				}
			}
		}
	}
	JOINT Spine
	{
		OFFSET	 0.000184	-0.007763	 0.117403
		CHANNELS 3 Zrotation Xrotation Yrotation
		JOINT Spine1
		{
			OFFSET	 0.000000	 0.000000	 0.137269
			CHANNELS 3 Zrotation Xrotation Yrotation
			JOINT Spine2
			{
				OFFSET	 0.000000	 0.000000	 0.156879
				CHANNELS 3 Zrotation Xrotation Yrotation
				JOINT LeftShoulder
				{
					OFFSET	 0.080501	-0.002496	 0.160144
					CHANNELS 3 Zrotation Xrotation Yrotation
					JOINT LeftArm
					{
						OFFSET	 0.000000	 0.000000	 0.164363
						CHANNELS 3 Zrotation Xrotation Yrotation
						JOINT LeftForeArm
						{
							OFFSET	 0.000000	 0.000000	 0.364576
							CHANNELS 3 Zrotation Xrotation Yrotation
							JOINT LeftHand
							{
								OFFSET	 0.000000	 0.000000	 0.360812
								CHANNELS 3 Zrotation Xrotation Yrotation
								JOINT LeftHandIndex1
								{
									OFFSET	 0.000000	 0.000000	 0.086006
									CHANNELS 3 Zrotation Xrotation Yrotation
									JOINT LeftHandIndex2
									{
										OFFSET	 0.000000	 0.000000	 0.047236
										CHANNELS 3 Zrotation Xrotation Yrotation
										JOINT LeftHandIndex3
										{
											OFFSET	-0.004284	-0.000551	 0.038166
											CHANNELS 3 Zrotation Xrotation Yrotation
											End Site
											{
												OFFSET	-0.004284	-0.000551	 0.038166
											}
										}
									}
								}
							}
						}
					}
				}
				JOINT Neck
				{
					OFFSET	 0.000000	 0.000000	 0.176489
					CHANNELS 3 Zrotation Xrotation Yrotation
					JOINT Head
					{
						OFFSET	 0.000000	-0.001747	 0.077940
						CHANNELS 3 Zrotation Xrotation Yrotation
						End Site
						{
							OFFSET	 0.000000	-0.001747	 0.077940
						}
					}
				}
				JOINT RightShoulder
				{
					OFFSET	-0.080363	 0.000306	 0.159706
					CHANNELS 3 Zrotation Xrotation Yrotation
					JOINT RightArm
					{
						OFFSET	 0.000000	 0.000000	 0.164196
						CHANNELS 3 Zrotation Xrotation Yrotation
						JOINT RightForeArm
						{
							OFFSET	 0.000000	 0.000000	 0.365611
							CHANNELS 3 Zrotation Xrotation Yrotation
							JOINT RightHand
							{
								OFFSET	 0.000000	 0.000000	 0.360648
								CHANNELS 3 Zrotation Xrotation Yrotation
								JOINT RightHandIndex1
								{
									OFFSET	 0.000000	 0.000000	 0.069977
									CHANNELS 3 Zrotation Xrotation Yrotation
									JOINT RightHandIndex2
									{
										OFFSET	 0.000000	 0.000000	 0.052305
										CHANNELS 3 Zrotation Xrotation Yrotation
										JOINT RightHandIndex3
										{
											OFFSET	 0.009002	-0.000782	 0.042196
											CHANNELS 3 Zrotation Xrotation Yrotation
											End Site
											{
												OFFSET	 0.009002	-0.000782	 0.042196
											}
										}
									}
								}
							}
						}
					}
				}
			}
		}
	}
}
MOTION
Frames:    7
Frame Time: 0.03333334
-0.000071	 0.044692	 1.274874	-0.092963	 2.369875	 0.495264	 13.524890	-6.067711	 177.282400	 2.294618	-12.773560	 0.599859	-0.759442	 70.395320	 0.631146	-2.385833	 28.452750	 0.000004	-5.944053	-5.583325	-177.561100	-0.799452	-11.370960	 0.858610	 5.488318	 69.476910	 0.819283	 2.384659	 28.388700	-0.000001	-11.452160	 6.331046	 1.320633	-3.067309	-2.447141	-0.026827	 9.523491	 5.496216	-0.605251	-91.191510	 69.940250	-177.878600	-8.964170	 3.912717	-24.841850	 23.605130	-0.046880	-1.787812	-11.392690	-24.799210	-5.084342	-2.027600	 6.559038	 9.033609	-5.188889	 0.308190	 3.541030	-5.234859	 0.342567	 0.430617	 4.324674	 17.388890	-6.561035	 4.646424	-13.362680	 2.181436	 89.044850	 68.892330	 177.428100	 8.840588	 9.456727	 10.410060	-24.706270	-5.810053	 19.773830	 9.047463	-24.866200	 7.403224	 1.803333	 3.979147	-15.098590	 4.898592	 3.004813	-9.310344	 5.224449	 0.395017	 2.014677
-0.000290	 0.047877	 1.274316	-0.079286	 2.704838	 0.537421	 13.692200	-6.748912	 177.330300	 2.221379	-13.038030	 0.595507	-0.275120	 70.280470	 0.178024	-2.385833	 28.452750	 0.000004	-6.170368	-6.214219	-177.676100	-0.782444	-11.567070	 0.876642	 5.125308	 69.396010	 1.208002	 2.384659	 28.388700	-0.000001	-14.932390	 6.610039	 1.359280	-3.115258	-2.567556	 0.072001	 9.599942	 6.184764	-0.751012	-91.099490	 69.312030	-177.666900	-7.853575	 5.012959	-26.593810	 21.631800	 0.075633	-2.662302	-11.671120	-26.419820	-5.822215	-2.027600	 6.559038	 9.033609	-5.188889	 0.308190	 3.541030	-5.234859	 0.342567	 0.430617	 4.516879	 19.030240	-7.080638	 4.810303	-14.614630	 2.218010	 88.919110	 68.028850	 177.174000	 7.958981	 10.782710	 10.913100	-23.095680	-5.441054	 21.708870	 9.206795	-26.153040	 7.664998	 1.803333	 3.979147	-15.098590	 4.898592	 3.004813	-9.310344	 5.224449	 0.395017	 2.014677
-0.000670	 0.052968	 1.273222	-0.050917	 3.238022	 0.612396	 13.897640	-7.959434	 177.402300	 2.167436	-13.717650	 0.613149	 0.446955	 70.276050	-0.556208	-2.385833	 28.452750	 0.000004	-6.492621	-7.333637	-177.887100	-0.760731	-12.121380	 0.922617	 4.572430	 69.386980	 1.813723	 2.384659	 28.388700	-0.000001	-19.322870	 6.978008	 1.357542	-3.129514	-2.360072	 0.332406	 9.609258	 6.884803	-0.969215	-90.985950	 68.548230	-177.425600	-6.313270	 6.759670	-29.243520	 19.007690	 0.316495	-3.795526	-12.214830	-28.597930	-7.027277	-2.027600	 6.559038	 9.033609	-5.188889	 0.308190	 3.541030	-5.234859	 0.342567	 0.430617	 4.697627	 21.130130	-7.733042	 5.040111	-16.279870	 2.296200	 88.745580	 66.846090	 176.855400	 6.587302	 12.898340	 12.268840	-21.055480	-4.569670	 23.344770	 9.426282	-27.878360	 8.128910	 1.803333	 3.979147	-15.098590	 4.898592	 3.004813	-9.310344	 5.224449	 0.395017	 2.014677
-0.001170	 0.058612	 1.271945	-0.008234	 3.869745	 0.696528	 13.999040	-9.546305	 177.483300	 2.126843	-14.900490	 0.670115	 1.255169	 70.549370	-1.460661	-2.385833	 28.452750	 0.000004	-6.825802	-8.707638	-178.149900	-0.745039	-12.925920	 0.986360	 3.926789	 69.469310	 2.540069	 2.384659	 28.388700	-0.000001	-23.169400	 7.326460	 1.383222	-3.057858	-1.647323	 0.557461	 9.460908	 7.237799	-1.108517	-90.901250	 67.958350	-177.261700	-5.047293	 8.451883	-31.916500	 16.493750	 0.623496	-4.837782	-13.023160	-30.727970	-8.465540	-2.027600	 6.559038	 9.033609	-5.188889	 0.308190	 3.541030	-5.234859	 0.342567	 0.430617	 4.726202	 22.933740	-8.253067	 5.263763	-17.813710	 2.418353	 88.582540	 65.705950	 176.587100	 5.141681	 14.730670	 13.807000	-19.066670	-3.627269	 24.940080	 9.699223	-29.550140	 8.741182	 1.803333	 3.979147	-15.098590	 4.898592	 3.004813	-9.310344	 5.224449	 0.395017	 2.014677
-0.001608	 0.063726	 1.270959	 0.025291	 4.421306	 0.755863	 14.192160	-10.965510	 177.596800	 2.200084	-15.971120	 0.723383	 2.015491	 70.784230	-2.317235	-2.385833	 28.452750	 0.000004	-7.106898	-9.909742	-178.376800	-0.732317	-13.583700	 1.038633	 3.339127	 69.489460	 3.204728	 2.384659	 28.388700	-0.000001	-26.154440	 7.660153	 1.446074	-2.948011	-0.552746	 0.743599	 9.296807	 7.336775	-1.185013	-90.827020	 67.453310	-177.122800	-4.182162	 9.619562	-34.341800	 14.429880	 0.933751	-5.683422	-13.768510	-32.376790	-9.789546	-2.027600	 6.559038	 9.033609	-5.188889	 0.308190	 3.541030	-5.234859	 0.342567	 0.430617	 4.764918	 24.478970	-8.696973	 5.439438	-19.115920	 2.529473	 88.438630	 64.730280	 176.360900	 3.971514	 15.881000	 15.038390	-17.443340	-2.914322	 26.997210	 9.924811	-30.851430	 9.314308	 1.803333	 3.979147	-15.098590	 4.898592	 3.004813	-9.310344	 5.224449	 0.395017	 2.014677
-0.002136	 0.070729	 1.270336	 0.080291	 5.305605	 0.838489	 14.346450	-12.740070	 177.797700	 2.203152	-16.803470	 0.757808	 3.161837	 70.792920	-3.581788	-2.385833	 28.452760	 0.000004	-7.523710	-11.391570	-178.703400	-0.957289	-13.834160	 1.003326	 2.489256	 69.215200	 4.415945	 2.384659	 28.388700	-0.000001	-29.295410	 7.993955	 1.434615	-2.772756	 0.803322	 1.058787	 8.947686	 7.296105	-1.340401	-90.828290	 66.612490	-177.264800	-3.028685	 10.594570	-37.053880	 11.334810	 1.358969	-6.636247	-15.477600	-34.076100	-11.762270	-2.027600	 6.559038	 9.033609	-5.188889	 0.308190	 3.541030	-5.234859	 0.342567	 0.430617	 4.550302	 25.414770	-8.773760	 5.460087	-20.051910	 2.486863	 88.406450	 63.469630	 176.479400	 2.145994	 16.771230	 16.423570	-15.244310	-1.787502	 29.356120	 10.402140	-32.123640	 10.401370	 1.803333	 3.979147	-15.098590	 4.898592	 3.004813	-9.310344	 5.224449	 0.395017	 2.014677
-0.002681	 0.077503	 1.269863	 0.129631	 6.162278	 0.911957	 14.390740	-14.351220	 177.994900	 2.200546	-17.411820	 0.783626	 4.111959	 70.691510	-4.745666	-2.385832	 28.452790	-0.000001	-7.997601	-12.777330	-179.032200	-1.182982	-13.984010	 0.959174	 1.603616	 68.897040	 5.573638	 2.384659	 28.388700	-0.000001	-31.858090	 8.292165	 1.414476	-2.575508	 2.504708	 1.382542	 8.574995	 7.071086	-1.465995	-90.837660	 65.820850	-177.404100	-2.109601	 11.329550	-39.773270	 8.513565	 1.796061	-7.466721	-17.161210	-35.421210	-13.671080	-2.027600	 6.559038	 9.033609	-5.188889	 0.308190	 3.541030	-5.234859	 0.342567	 0.430617	 4.339890	 26.252550	-8.820598	 5.438934	-20.889670	 2.439533	 88.388460	 62.292580	 176.597900	 0.447648	 17.423700	 18.146850	-13.334610	-0.621468	 31.292590	 10.858760	-33.126730	 11.464290	 1.803333	 3.979147	-15.098590	 4.898592	 3.004813	-9.310344	 5.224449	 0.395017	 2.014677
